<svg width="27" height="19" viewBox="0 0 27 19" fill="none" xmlns="http://www.w3.org/2000/svg">
<path d="M23.5358 3.46416L13.5 10.8502L3.46416 3.46416M2.28008 1.0192C1.94058 1.0192 1.61499 1.15407 1.37493 1.39413C1.13487 1.63419 1 1.95978 1 2.29928V16.7706C1 17.1101 1.13487 17.4357 1.37493 17.6758C1.61499 17.9158 1.94058 18.0507 2.28008 18.0507H24.7199C25.0594 18.0507 25.385 17.9158 25.6251 17.6758C25.8651 17.4357 26 17.1101 26 16.7706V2.28008C26 1.94058 25.8651 1.61499 25.6251 1.37493C25.385 1.13487 25.0594 1 24.7199 1H2.28008V1.0192Z" stroke="white" stroke-width="1.3" stroke-linecap="round" stroke-linejoin="round"/>
</svg>
