<svg width="25" height="25" viewBox="0 0 25 25" fill="none" xmlns="http://www.w3.org/2000/svg">
<path d="M5.70993 2.07541C5.61769 1.95676 5.50127 1.85909 5.36838 1.78889C5.2355 1.7187 5.0892 1.67758 4.9392 1.66827C4.78921 1.65896 4.63895 1.68167 4.4984 1.73489C4.35786 1.78812 4.23025 1.87064 4.12404 1.97698L2.50847 3.59412C1.75381 4.35035 1.47569 5.42064 1.80537 6.35968C3.17367 10.2464 5.39946 13.7753 8.31766 16.6844C11.2268 19.6026 14.7556 21.8284 18.6423 23.1968C19.5814 23.5264 20.6517 23.2483 21.4079 22.4937L23.0235 20.8781C23.1298 20.7719 23.2123 20.6443 23.2655 20.5037C23.3188 20.3632 23.3415 20.2129 23.3322 20.0629C23.3228 19.9129 23.2817 19.7666 23.2115 19.6337C23.1413 19.5008 23.0437 19.3844 22.925 19.2922L19.3204 16.4891C19.1937 16.3908 19.0462 16.3226 18.8893 16.2895C18.7323 16.2565 18.5698 16.2596 18.4142 16.2985L14.9925 17.1532C14.5357 17.2673 14.0572 17.2613 13.6035 17.1356C13.1498 17.0099 12.7364 16.7689 12.4035 16.436L8.56609 12.597C8.23293 12.2643 7.99162 11.8509 7.86567 11.3972C7.73971 10.9435 7.73341 10.4649 7.84736 10.008L8.70359 6.58624C8.7425 6.43061 8.74557 6.26818 8.71255 6.11119C8.67953 5.95421 8.61128 5.80677 8.51297 5.68001L5.70993 2.07541ZM2.94439 0.798879C3.21781 0.525369 3.54629 0.313157 3.90802 0.176334C4.26974 0.0395101 4.65644 -0.0187937 5.04242 0.00529368C5.42841 0.029381 5.80486 0.135308 6.14676 0.316042C6.48867 0.496775 6.78822 0.748179 7.02552 1.05356L9.82855 4.6566C10.3426 5.31752 10.5238 6.17844 10.3207 6.99092L9.46606 10.4127C9.42188 10.5899 9.42426 10.7756 9.47299 10.9516C9.52172 11.1276 9.61514 11.2881 9.74418 11.4174L13.5831 15.2563C13.7126 15.3856 13.8733 15.4792 14.0496 15.528C14.2259 15.5767 14.4119 15.5789 14.5893 15.5345L18.0095 14.6798C18.4105 14.5795 18.829 14.5718 19.2334 14.657C19.6378 14.7423 20.0175 14.9184 20.3438 15.172L23.9469 17.975C25.2421 18.9828 25.3609 20.8968 24.2015 22.0546L22.586 23.6702C21.4298 24.8264 19.7017 25.3342 18.0908 24.767C13.9678 23.3163 10.2243 20.9559 7.13801 17.861C4.04325 14.7751 1.68288 11.0322 0.231979 6.90967C-0.333629 5.30033 0.174168 3.57069 1.33038 2.41446L2.94596 0.798879H2.94439Z" fill="white"/>
</svg>
