<svg width="25" height="25" viewBox="0 0 25 25" fill="none" xmlns="http://www.w3.org/2000/svg">
<path d="M5.70997 2.07541C5.61773 1.95676 5.5013 1.85909 5.36842 1.78889C5.23553 1.7187 5.08923 1.67758 4.93924 1.66827C4.78924 1.65896 4.63898 1.68167 4.49843 1.73489C4.35789 1.78812 4.23027 1.87064 4.12407 1.97698L2.50849 3.59412C1.75382 4.35035 1.4757 5.42064 1.80538 6.35968C3.17369 10.2464 5.3995 13.7753 8.31772 16.6844C11.2269 19.6026 14.7557 21.8284 18.6425 23.1968C19.5815 23.5264 20.6518 23.2483 21.408 22.4937L23.0236 20.8781C23.1299 20.7719 23.2125 20.6443 23.2657 20.5037C23.3189 20.3632 23.3416 20.2129 23.3323 20.0629C23.323 19.9129 23.2819 19.7666 23.2117 19.6337C23.1415 19.5008 23.0438 19.3844 22.9252 19.2922L19.3206 16.4891C19.1938 16.3908 19.0464 16.3226 18.8894 16.2895C18.7324 16.2565 18.57 16.2596 18.4143 16.2985L14.9926 17.1532C14.5358 17.2673 14.0573 17.2613 13.6036 17.1356C13.1499 17.0099 12.7365 16.7689 12.4036 16.436L8.56615 12.597C8.23298 12.2643 7.99167 11.8509 7.86572 11.3972C7.73976 10.9435 7.73346 10.4649 7.84742 10.008L8.70365 6.58624C8.74256 6.43061 8.74563 6.26818 8.71261 6.11119C8.67958 5.95421 8.61134 5.80677 8.51303 5.68001L5.70997 2.07541ZM2.94441 0.798879C3.21784 0.525369 3.54632 0.313157 3.90804 0.176334C4.26977 0.0395101 4.65647 -0.0187937 5.04246 0.00529368C5.42845 0.029381 5.80489 0.135308 6.1468 0.316042C6.48872 0.496775 6.78826 0.748179 7.02556 1.05356L9.82862 4.6566C10.3427 5.31752 10.5239 6.17844 10.3208 6.99092L9.46613 10.4127C9.42194 10.5899 9.42433 10.7756 9.47306 10.9516C9.52179 11.1276 9.61521 11.2881 9.74425 11.4174L13.5832 15.2563C13.7126 15.3856 13.8734 15.4792 14.0497 15.528C14.226 15.5767 14.412 15.5789 14.5894 15.5345L18.0097 14.6798C18.4106 14.5795 18.8291 14.5718 19.2335 14.657C19.6379 14.7423 20.0176 14.9184 20.344 15.172L23.947 17.975C25.2423 18.9828 25.361 20.8968 24.2017 22.0546L22.5861 23.6702C21.4299 24.8264 19.7018 25.3342 18.0909 24.767C13.9679 23.3163 10.2243 20.9559 7.13806 17.861C4.04327 14.7751 1.68289 11.0322 0.23198 6.90967C-0.333631 5.30033 0.174169 3.57069 1.33039 2.41446L2.94598 0.798879H2.94441Z" fill="white"/>
</svg>
