<svg width="38" height="26" viewBox="0 0 38 26" fill="none" xmlns="http://www.w3.org/2000/svg">
<path d="M32.7207 4.46847L18.5946 14.8649L4.46847 4.46847M2.8018 1.02703C2.32393 1.02703 1.86564 1.21686 1.52774 1.55476C1.18983 1.89267 1 2.35096 1 2.82883V23.1982C1 23.6761 1.18983 24.1344 1.52774 24.4723C1.86564 24.8102 2.32393 25 2.8018 25H34.3874C34.8652 25 35.3235 24.8102 35.6614 24.4723C35.9993 24.1344 36.1892 23.6761 36.1892 23.1982V2.8018C36.1892 2.32393 35.9993 1.86564 35.6614 1.52774C35.3235 1.18983 34.8652 1 34.3874 1H2.8018V1.02703Z" stroke="white" stroke-width="2" stroke-linecap="round" stroke-linejoin="round"/>
</svg>
