<svg width="17" height="12" viewBox="0 0 17 12" fill="none" xmlns="http://www.w3.org/2000/svg">
<path d="M14.217 2.4452L8.33108 6.77703L2.44519 2.4452M1.75075 1.01126C1.55164 1.01126 1.36068 1.09036 1.21989 1.23115C1.0791 1.37194 1 1.5629 1 1.76201V10.2492C1 10.4484 1.0791 10.6393 1.21989 10.7801C1.36068 10.9209 1.55164 11 1.75075 11H14.9114C15.1105 11 15.3015 10.9209 15.4423 10.7801C15.5831 10.6393 15.6622 10.4484 15.6622 10.2492V1.75075C15.6622 1.55164 15.5831 1.36068 15.4423 1.21989C15.3015 1.0791 15.1105 1 14.9114 1H1.75075V1.01126Z" stroke="white" stroke-linecap="round" stroke-linejoin="round"/>
</svg>
