<svg width="11" height="11" viewBox="0 0 11 11" fill="none" xmlns="http://www.w3.org/2000/svg">
<path d="M2.51239 0.91318C2.4718 0.860974 2.42057 0.818 2.3621 0.787113C2.30364 0.756227 2.23926 0.738134 2.17326 0.734038C2.10727 0.729941 2.04115 0.739934 1.97931 0.763353C1.91747 0.786773 1.86132 0.823082 1.81459 0.869869L1.10373 1.58141C0.77168 1.91416 0.649308 2.38508 0.794367 2.79826C1.39642 4.50843 2.37578 6.06112 3.6598 7.34115C4.93984 8.62515 6.49252 9.6045 8.20268 10.2066C8.61586 10.3516 9.08679 10.2293 9.41953 9.89721L10.1304 9.18635C10.1772 9.13962 10.2135 9.08347 10.2369 9.02163C10.2603 8.95979 10.2703 8.89368 10.2662 8.82768C10.2621 8.76168 10.244 8.69731 10.2131 8.63884C10.1823 8.58037 10.1393 8.52914 10.0871 8.48856L8.50105 7.25521C8.44528 7.21195 8.3804 7.18193 8.31133 7.1674C8.24226 7.15287 8.17079 7.15422 8.10231 7.17134L6.59672 7.54739C6.39576 7.59762 6.18521 7.59496 5.98558 7.53966C5.78595 7.48436 5.60404 7.37831 5.45756 7.23184L3.76911 5.54269C3.62251 5.39628 3.51634 5.21441 3.46092 5.01477C3.4055 4.81514 3.40272 4.60456 3.45286 4.40353L3.8296 2.89794C3.84673 2.82947 3.84808 2.758 3.83355 2.68892C3.81902 2.61985 3.78899 2.55498 3.74573 2.4992L2.51239 0.91318ZM1.29554 0.351507C1.41585 0.231162 1.56038 0.137789 1.71954 0.0775868C1.8787 0.0173844 2.04885 -0.00826922 2.21868 0.00232922C2.38852 0.0129277 2.55415 0.0595357 2.70459 0.139058C2.85503 0.218581 2.98684 0.329199 3.09125 0.463566L4.32459 2.0489C4.55077 2.33971 4.63052 2.71851 4.54115 3.076L4.1651 4.58159C4.14565 4.65957 4.1467 4.74126 4.16815 4.81871C4.18959 4.89617 4.23069 4.96676 4.28747 5.02364L5.97661 6.71279C6.03356 6.76968 6.10427 6.81085 6.18186 6.8323C6.25945 6.85374 6.34127 6.85473 6.41935 6.83516L7.92425 6.45911C8.10067 6.415 8.28481 6.41157 8.46275 6.44909C8.64068 6.4866 8.80776 6.56408 8.95135 6.67566L10.5367 7.90901C11.1066 8.35244 11.1589 9.1946 10.6487 9.70403L9.93789 10.4149C9.42915 10.9236 8.6688 11.1471 7.96 10.8975C6.14586 10.2592 4.49871 9.22062 3.14075 7.85882C1.77904 6.50105 0.740474 4.85415 0.102071 3.04025C-0.146798 2.33215 0.0766344 1.5711 0.585372 1.06236L1.29623 0.351507H1.29554Z" fill="white"/>
</svg>
