<svg width="27" height="23" viewBox="0 0 27 23" fill="none" xmlns="http://www.w3.org/2000/svg">
<path d="M24.8739 1C25.6443 1 26.2254 1.67578 25.9146 2.93274L22.1437 20.7059C21.8802 21.9696 21.1165 22.2737 20.0623 21.6858L11.0676 15.0428C11.0327 15.0178 11.0043 14.9848 10.9847 14.9466C10.9651 14.9084 10.9549 14.8661 10.9549 14.8232C10.9549 14.7802 10.9651 14.7379 10.9847 14.6997C11.0043 14.6615 11.0327 14.6286 11.0676 14.6035L21.4544 5.22365C21.9275 4.80467 21.353 4.60193 20.7313 4.98037L7.69544 13.2047C7.6559 13.2305 7.61101 13.2469 7.56418 13.2528C7.51734 13.2586 7.46979 13.2537 7.42512 13.2385L1.89045 11.4882C0.660518 11.13 0.660518 10.2853 2.16752 9.68383L24.313 1.14191C24.4886 1.05766 24.6793 1.00941 24.8739 1V1Z" stroke="white" stroke-width="1.3" stroke-linecap="round" stroke-linejoin="round"/>
</svg>
