<svg width="27" height="27" viewBox="0 0 27 27" fill="none" xmlns="http://www.w3.org/2000/svg">
<path d="M13.5057 1C11.3333 1.00233 9.19897 1.56998 7.31248 2.64712C5.42599 3.72427 3.8523 5.27382 2.74614 7.14345C1.63997 9.01307 1.03942 11.1384 1.00352 13.3104C0.967624 15.4825 1.49762 17.6265 2.54139 19.5316L1 26.0113L7.47967 24.4699C9.15092 25.3867 11.0096 25.9093 12.9138 25.9978C14.8179 26.0863 16.7171 25.7383 18.4662 24.9805C20.2153 24.2227 21.7679 23.075 23.0056 21.6252C24.2432 20.1755 25.1331 18.462 25.6071 16.6156C26.0812 14.7693 26.1269 12.8391 25.7407 10.9724C25.3546 9.10572 24.5469 7.35202 23.3792 5.8453C22.2116 4.33858 20.7149 3.11873 19.0037 2.27896C17.2924 1.43919 15.4119 1.00172 13.5057 1ZM7.25283 6.6828H10.6613C10.8156 6.6828 10.9636 6.74408 11.0726 6.85316C11.1817 6.96225 11.243 7.11019 11.243 7.26446C11.2239 8.04016 11.3543 8.81229 11.6269 9.53874C11.7443 9.78193 11.7701 10.0593 11.6996 10.32C11.6291 10.5806 11.467 10.8072 11.243 10.958L10.0506 12.1213C10.5793 13.1538 11.2706 14.0945 12.098 14.9074C12.9044 15.7483 13.8413 16.4535 14.8726 16.9956L16.0359 15.8032C16.6175 15.2215 16.8851 15.2215 17.4551 15.4193C18.1816 15.692 18.9537 15.8223 19.7294 15.8032C19.8814 15.8103 20.0253 15.8738 20.1328 15.9814C20.2404 16.089 20.304 16.2329 20.3111 16.3849V19.7934C20.304 19.9454 20.2404 20.0892 20.1328 20.1968C20.0253 20.3044 19.8814 20.368 19.7294 20.375C16.3078 20.226 13.0646 18.8075 10.6323 16.3965C8.21743 13.9668 6.79834 10.7219 6.65372 7.29936C6.6551 7.13926 6.71814 6.98585 6.82971 6.87102C6.94129 6.75619 7.09283 6.68878 7.25283 6.6828Z" stroke="white" stroke-linecap="round" stroke-linejoin="round"/>
</svg>
